<svg xmlns="http://www.w3.org/2000/svg" xml:space="preserve" width="544pt" height="544pt" viewBox="0 0 144 144"><defs><linearGradient id="a" x1="-28.08" x2="122.48" y1="1.56" y2="179" gradientTransform="translate(3.07 3.23)" gradientUnits="userSpaceOnUse"><stop offset="0" style="stop-color:#fff"/><stop offset="1" style="stop-color:#8c8ca4"/></linearGradient><linearGradient id="b" x1="-32.73" x2="117.83" y1="5.5" y2="182.94" gradientTransform="translate(3.07 3.23)" gradientUnits="userSpaceOnUse"><stop offset="0" style="stop-color:#fff"/><stop offset="1" style="stop-color:#8c8ca4"/></linearGradient><linearGradient id="c" x1="-45.72" x2="104.85" y1="16.52" y2="193.97" gradientTransform="translate(3.07 3.23)" gradientUnits="userSpaceOnUse"><stop offset="0" style="stop-color:#fff"/><stop offset="1" style="stop-color:#8c8ca4"/></linearGradient><linearGradient id="d" x1="4.01" x2="154.56" y1="-25.66" y2="151.78" gradientTransform="translate(3.07 3.23)" gradientUnits="userSpaceOnUse"><stop offset="0" style="stop-color:#fff"/><stop offset="1" style="stop-color:#8c8ca4"/></linearGradient><linearGradient id="e" x1="-2.02" x2="148.54" y1="-20.55" y2="156.89" gradientTransform="translate(3.07 3.23)" gradientUnits="userSpaceOnUse"><stop offset="0" style="stop-color:#fff"/><stop offset="1" style="stop-color:#8c8ca4"/></linearGradient><linearGradient id="f" x1="-9.19" x2="141.24" y1="-14.4" y2="162.89" gradientTransform="translate(3.07 3.23)" gradientUnits="userSpaceOnUse"><stop offset="0" style="stop-color:#fff"/><stop offset="1" style="stop-color:#8c8ca4"/></linearGradient><linearGradient id="g" x1="35.36" x2="170.09" y1="37.13" y2="197.82" gradientTransform="translate(3.07 3.23)" gradientUnits="userSpaceOnUse"><stop offset="0" style="stop-color:#fff"/><stop offset=".18" style="stop-color:#fbfbfc"/><stop offset=".37" style="stop-color:#eeeef2"/><stop offset=".56" style="stop-color:#d9d9e1"/><stop offset=".76" style="stop-color:#bbbbc9"/><stop offset=".96" style="stop-color:#9595ab"/><stop offset="1" style="stop-color:#8c8ca4"/></linearGradient><clipPath id="h" clipPathUnits="userSpaceOnUse"><circle cx="292.41" cy="78.4" r="43.65" style="opacity:1;fill:none;fill-opacity:1;stroke:#000;stroke-width:.51056468;stroke-miterlimit:4;stroke-dasharray:none;stroke-dashoffset:0;stroke-opacity:1"/></clipPath></defs><path d="M149.2 146.8H5.2V2.8h144z" style="clip-rule:nonzero;fill:none;fill-rule:nonzero;stroke:none;stroke-width:0;stroke-miterlimit:4"/><g style="clip-rule:nonzero;fill:#89939b;fill-opacity:1;fill-rule:nonzero;stroke:none;stroke-width:0;stroke-miterlimit:4"><path d="m136.67 120.49-5.03 5.02-14-14 5.02-5.03z" style="fill:#89939b;fill-opacity:1" transform="translate(3.07 3.23)"/><path d="M122.66 105.8a.7.7 0 0 0-.48.2l-5.02 5.03a.67.67 0 0 0 0 .95l14 14c.27.27.69.27.95 0l5.03-5.02a.7.7 0 0 0 0-.95l-14-14a.7.7 0 0 0-.48-.2zm0 1.63 13.05 13.06-4.07 4.08-13.06-13.06z" style="fill:#89939b;fill-opacity:1" transform="translate(3.07 3.23)"/></g><g style="clip-rule:nonzero;fill:#89939b;fill-opacity:1;fill-rule:nonzero;stroke:none;stroke-width:0;stroke-miterlimit:4"><path d="m31.81 15.63-5.02 5.03-14.01-14 5.02-5.03z" style="fill:#89939b;fill-opacity:1" transform="translate(3.07 3.23)"/><path d="M17.8.96a.7.7 0 0 0-.47.2L12.3 6.17a.67.67 0 0 0 0 .95l14 14c.27.27.7.27.96 0l5.03-5.02a.67.67 0 0 0 0-.95l-14-14a.7.7 0 0 0-.49-.2Zm0 1.62 13.06 13.05-4.07 4.08L13.73 6.66z" style="fill:#89939b;fill-opacity:1" transform="translate(3.07 3.23)"/></g><path d="M84.22 139.76H69.53l-4.82-23.22 25.16.1z" style="clip-rule:nonzero;fill:url(#a);fill-rule:nonzero;stroke:none;stroke-width:0;stroke-miterlimit:4"/><path d="M63.67 115.69c-.26.31-.36.73-.28 1.13l4.83 23.2c.13.63.68 1.08 1.31 1.08h14.7c.61 0 1.15-.42 1.3-1.02l5.65-23.11a1.35 1.35 0 0 0-1.3-1.67l-25.17-.1c-.4 0-.79.18-1.04.49m2.7 2.2 21.8.1-5 20.42H70.63z" style="clip-rule:nonzero;fill:#89939b;fill-opacity:1;fill-rule:nonzero;stroke:none;stroke-width:0;stroke-miterlimit:4"/><path d="m81.61 138.41-9.76.01-2.93-23.17 16.46.34z" style="clip-rule:nonzero;fill:#deeafb;fill-opacity:1;fill-rule:nonzero;stroke:none;stroke-width:0;stroke-miterlimit:4"/><path d="M5.22 73.27V58.58l23.21-4.82-.1 25.16z" style="clip-rule:nonzero;fill:url(#b);fill-rule:nonzero;stroke:none;stroke-width:0;stroke-miterlimit:4"/><path d="M28.16 52.44 4.95 57.27c-.63.13-1.08.68-1.08 1.31v14.7c0 .61.43 1.15 1.03 1.3l23.11 5.65a1.34 1.34 0 0 0 1.66-1.3l.1-25.17a1.35 1.35 0 0 0-1.61-1.32m-1.08 2.97c0 2.69-.08 19.05-.09 21.8l-20.43-5V59.69z" style="clip-rule:nonzero;fill:#89939b;fill-opacity:1;fill-rule:nonzero;stroke:none;stroke-width:0;stroke-miterlimit:4"/><path d="M6.56 70.67V60.9l23.16-2.93-.34 16.46z" style="clip-rule:nonzero;fill:#deeafb;fill-opacity:1;fill-rule:nonzero;stroke:#deeafb;stroke-width:0;stroke-miterlimit:4;stroke-opacity:1"/><path d="m30.85 123.6-10.39-10.4 13-19.82 17.73 17.87z" style="clip-rule:nonzero;fill:url(#c);fill-rule:nonzero;stroke:none;stroke-width:0;stroke-miterlimit:4"/><path d="M33.33 92.04c-.4.04-.77.26-.99.6l-13 19.83c-.35.53-.28 1.24.17 1.69l10.4 10.38c.43.44 1.1.53 1.64.2l20.33-12.34a1.35 1.35 0 0 0 .26-2.1L34.42 92.43a1.3 1.3 0 0 0-1.09-.39m.35 3.47 15.35 15.47-17.98 10.92-8.86-8.87z" style="clip-rule:nonzero;fill:#89939b;fill-opacity:1;fill-rule:nonzero;stroke:none;stroke-width:0;stroke-miterlimit:4"/><path d="m29.95 120.8-6.9-6.9 14.3-18.45 11.4 11.88z" style="clip-rule:nonzero;fill:#deeafb;fill-opacity:1;fill-rule:nonzero;stroke:none;stroke-width:0;stroke-miterlimit:4"/><path d="m134.2 113.79-10.38 10.39-19.83-13 17.87-17.73z" style="clip-rule:nonzero;fill:url(#d);fill-rule:nonzero;stroke:none;stroke-width:0;stroke-miterlimit:4"/><path d="m120.91 92.5-17.86 17.72a1.34 1.34 0 0 0 .2 2.08l19.83 13c.54.35 1.24.28 1.7-.18l10.38-10.38c.44-.44.52-1.12.2-1.65L123 92.75a1.34 1.34 0 0 0-2.1-.25zm.69 3.1 10.91 17.98-8.87 8.87-17.52-11.49c1.9-1.9 13.52-13.41 15.48-15.35" style="clip-rule:nonzero;fill:#89939b;fill-opacity:1;fill-rule:nonzero;stroke:none;stroke-width:0;stroke-miterlimit:4"/><path d="m131.41 114.68-6.9 6.92-18.45-14.31 11.88-11.41z" style="clip-rule:nonzero;fill:#deeafb;fill-opacity:1;fill-rule:nonzero;stroke:none;stroke-width:0;stroke-miterlimit:4"/><path d="M21.38 20.24 31.77 9.85l19.82 13-17.86 17.72z" style="clip-rule:nonzero;fill:url(#e);fill-rule:nonzero;stroke:none;stroke-width:0;stroke-miterlimit:4"/><path d="m30.82 8.9-10.4 10.39a1.34 1.34 0 0 0-.19 1.64l12.35 20.34a1.35 1.35 0 0 0 2.1.26L52.53 23.8a1.34 1.34 0 0 0-.2-2.07l-19.84-13a1.35 1.35 0 0 0-1.68.17m1.12 2.67 17.53 11.5-15.48 15.35-10.91-17.98z" style="clip-rule:nonzero;fill:#89939b;fill-opacity:1;fill-rule:nonzero;stroke:none;stroke-width:0;stroke-miterlimit:4"/><path d="m24.17 19.34 6.9-6.91 18.46 14.3-11.88 11.41z" style="clip-rule:nonzero;fill:#deeafb;fill-opacity:1;fill-rule:nonzero;stroke:#deeafb;stroke-width:0;stroke-miterlimit:4;stroke-opacity:1"/><path d="M77.69 112.52a45 45 0 0 1-16.1-87.04l-1.42-6.46a51.56 51.56 0 0 0 17.52 100.03 51.6 51.6 0 0 0 48.38-33.73l-6.34-1.75a45 45 0 0 1-42.04 28.95" style="clip-rule:nonzero;fill:url(#f);fill-rule:nonzero;stroke:none;stroke-width:0;stroke-miterlimit:4"/><path d="M77.6 116.36a48.77 48.77 0 0 1-17.45-94.3l-.47-2.12a51 51 0 0 0-32.86 47.57 50.93 50.93 0 0 0 50.87 50.87 51.1 51.1 0 0 0 47.47-32.62l-2.07-.57a48.8 48.8 0 0 1-45.49 31.17" style="clip-rule:nonzero;fill:none;fill-rule:nonzero;stroke:none;stroke-width:0;stroke-miterlimit:4"/><path d="M77.69 113.19A45.73 45.73 0 0 1 32 67.5a45.95 45.95 0 0 1 28.8-42.43l-.66-3.03a48.78 48.78 0 1 0 62.94 63.14l-2.97-.82a45.9 45.9 0 0 1-42.43 28.82z" style="clip-rule:nonzero;fill:url(#g);fill-rule:nonzero;stroke:none;stroke-width:0;stroke-miterlimit:4"/><path d="M126.67 85.01a.7.7 0 0 0-.42-.34l-6.34-1.74a.66.66 0 0 0-.77.34l4.24 1.17-.3.75 2.08.57a51.1 51.1 0 0 1-47.47 32.62A50.93 50.93 0 0 1 26.8 67.5a51 51 0 0 1 32.87-47.57l.46 2.11.89-.34.94 4.31a.7.7 0 0 0 .27-.68l-1.41-6.46a.7.7 0 0 0-.34-.45.7.7 0 0 0-.55-.04A52.4 52.4 0 0 0 25.46 67.5a52.3 52.3 0 0 0 52.22 52.21 52.4 52.4 0 0 0 49.01-34.17.7.7 0 0 0-.03-.54" style="clip-rule:nonzero;fill:#89939b;fill-opacity:1;fill-rule:nonzero;stroke:none;stroke-width:0;stroke-miterlimit:4"/><path d="m60.15 22.05.66 3.03a45.95 45.95 0 0 0-28.8 42.43 45.73 45.73 0 0 0 45.68 45.68 45.9 45.9 0 0 0 42.43-28.82c.48.14 1.77.5 2.97.82l.3-.75-4.25-1.17-.04.06a44.6 44.6 0 0 1-41.41 28.51 44.4 44.4 0 0 1-44.34-44.33 44.6 44.6 0 0 1 28.48-41.4l.14-.09-.94-4.3z" style="clip-rule:nonzero;fill:#8b939c;fill-opacity:1;fill-rule:nonzero;stroke:#6e6e6e;stroke-width:0;stroke-miterlimit:4;stroke-opacity:1"/><path d="M288.65 122.36c-.26-.17-.26-.21 0-.38.15-.1.4-.19.55-.19.52 0 3.75-1.2 5.7-2.12 1.09-.5 2.05-.92 2.14-.92s.17.16.17.37c0 .47-.76 2.87-1 3.2-.23.29-7.12.33-7.56.04m9.61-.37c-.1-.17 1.36-4.78 1.67-5.28.08-.13.98-.72 2-1.31a47 47 0 0 0 5.84-3.98l.95-.8 3.33.09c3 .08 8.67-.27 10.5-.64q1.3-.25-.66 1.47a45 45 0 0 1-20.97 10.26c-2.16.42-2.5.44-2.66.2m-15.52-.38c-.9-.2-2.97-.8-4.6-1.34l-2.96-1-.84-1.17c-3.9-5.38-6.72-13.92-7.13-21.59l-.12-2.16.46.14c.25.08.84.34 1.31.58a46 46 0 0 0 9.68 3.53c.5.1 1.4.57 2.28 1.18a60 60 0 0 0 8.14 4.73c3.9 1.9 4.91 2.32 7.68 3.21 1.3.43 2.45.85 2.55.95.34.34-.88 7.38-1.4 8-.57.69-3.86 2.63-5.94 3.5-4.3 1.82-6.01 2.1-9.11 1.44m-10.93-3.94a46 46 0 0 1-15.43-13.95 48 48 0 0 1-8.14-22.21c-.08-.62-.05-1 .07-1 .1 0 .5.5.89 1.1a34.6 34.6 0 0 0 12.82 11.74l1.42.76.43 2.57a46 46 0 0 0 4.71 14.4 39 39 0 0 0 3.74 5.79c.4.48.73.93.73 1 0 .21-.66.1-1.24-.2m29.13-3.92c.07-.23.32-1.28.55-2.33l.4-1.9 1.51-.22c2.3-.35 2.37-.34 2.37.26 0 .53-.63 1.2-3.3 3.56-1.31 1.15-1.76 1.33-1.53.63m15.29-4.64-3.33-.37a17 17 0 0 1-2.82-.44c-.08-.09.48-.88 1.25-1.76.77-.89 1.65-1.95 1.96-2.36l1.67-2.16a39 39 0 0 0 4.06-6.22c.77-1.44 1.24-2.12 1.64-2.33A49 49 0 0 0 329 87.6c.51-.45 1-.82 1.09-.82.64 0 .95 9.83.42 13.12a6 6 0 0 1-1.28 3.16c-1.51 2.3-3.94 5.26-4.67 5.69-.57.34-1 .38-4.15.4-1.94.02-3.82 0-4.19-.05m-11.5-1.71a11 11 0 0 1-2.32-.7c-.16-.16-.18-.47-.06-1.08.1-.47.23-2.5.3-4.52.1-2.56.2-3.72.37-3.86.13-.11 1.34-.4 2.68-.65a64 64 0 0 0 8.33-2c.94-.32 1.77-.5 1.86-.42.27.27-3.1 6.35-5.62 10.12-1.85 2.77-2.56 3.62-3.05 3.6-.22 0-1.35-.23-2.5-.5m-6.95-2.06c-3.6-1.4-8.8-4-11.26-5.65-2.51-1.68-3.1-2.22-.51-2.13 4.01.13 5.56.16 10.23-.1l3.85-.21-.26 5.4c-.03 1.94-.13 3.24-.24 3.27s-.92-.23-1.81-.58m34.17-7.3c-.05-.08.03-1.47.2-3.08.2-2.07.26-4.24.2-7.32l-.09-4.37 2.2-2.28a40 40 0 0 1 2.39-2.36c.49-.2-.36 7.08-1.24 10.53-.72 2.88-3.1 9.04-3.49 9.04q-.08-.01-.17-.15m-44.35-3c-2.26-.14-5.56-.47-7.6-.77-1.85-.27-2.19-.38-2.86-.92-3.3-2.67-9.42-9.54-9.42-10.56 0-.88 1.99-8.83 2.3-9.2.07-.08 1.29-.4 2.7-.7 5.06-1.07 11.79-3.1 15.29-4.62l2.9-1.26c1-.43 1.86-.7 1.94-.63.3.3 2.45 5.95 3.3 8.61.78 2.5 1.76 6.4 2.48 9.99.3 1.48.75 4.8 1.02 7.42.1.94.2 1.84.24 2 .06.22-.2.3-1.16.4-1.63.16-9.68.33-11.13.24m15.05-.8a22 22 0 0 1-.3-2.52 66 66 0 0 0-2.2-13.18 72 72 0 0 0-3.9-10.87 19 19 0 0 1-1.13-2.93c0-.6.48-.98 2.96-2.3 6.06-3.22 10.44-6.05 12.76-8.23.46-.43.72-.54 1.06-.46.26.07 1.4 1.15 2.58 2.45a66 66 0 0 1 7.24 9.26l.82 1.26-.12 2.85a86 86 0 0 1-1.05 9.6 80 80 0 0 1-2.62 9.31l-.5 1.4-1.17.54c-1.34.6-5.68 2.08-7.48 2.55-1.19.3-6.46 1.42-6.72 1.42-.07 0-.18-.06-.23-.15M269.57 92c-1.23-.34-2.3-.67-2.4-.73a8 8 0 0 1-.1-2.15c.09-2.22.18-2.92.4-2.9.08 0 .57.57 1.09 1.26a52 52 0 0 0 3.66 4.3l.86.9-.64-.03a21 21 0 0 1-2.87-.65m-9.1-3.47a39 39 0 0 1-9.14-6.53c-1.9-1.86-3.19-3.5-3.33-4.27-.16-.85 0-3.29.23-3.5.1-.1.84-.09 1.69.01.83.1 3.4.2 5.7.23l4.19.04.95 1.9c.53 1.05 1.4 2.7 1.95 3.66l1 1.75-.19 2.24a61 61 0 0 0-.19 4c0 1.28-.07 1.76-.24 1.76-.13 0-1.31-.58-2.62-1.29m61.83-1.24c0-.25.22-1.08.48-1.86a73 73 0 0 0 2.29-11.54c.07-.86.2-1.57.3-1.57.58 0 4.56 9.81 4.28 10.56-.16.4-6.82 4.85-7.27 4.85-.04 0-.08-.2-.08-.44m9.07-6.36c-.05-.08-.31-.96-.58-1.95a65 65 0 0 0-4.65-12.18c-1.14-2.2-1.25-2.52-1.49-4.37a49 49 0 0 0-4.36-15.22c-1.24-2.54-1.24-2.54-.86-2.92.54-.54.9-.33 3.33 1.99a46 46 0 0 1 11.78 17.86c.9 2.48 1.42 4.55 1.94 7.8.42 2.68.43 2.78.1 3.52-.6 1.35-4.95 5.92-5.21 5.47M263.29 76c-1.28-2.37-1.19-2.8.46-2.22.52.2 1.03.44 1.12.55s.06.82-.1 1.72l-.27 1.56q-.02.05-.17.05c-.1 0-.56-.75-1.05-1.66m-12.5-4.03-2.18-.12-.07-.53c-.23-2.03 2.13-9.15 4.37-13.18 1.2-2.17 1.64-2.79 1.88-2.64.08.05.2.66.28 1.37.3 2.9 1.75 8.72 3.07 12.37.68 1.89.81 2.42.61 2.54-.14.1-.99.17-1.89.17s-2.14.03-2.76.07-2.1.01-3.3-.05m10.15-.64c-.36-.56-1.12-2.55-2.17-5.66a74 74 0 0 1-2.65-10.61l-.41-2.15 1.06-1.4a43 43 0 0 1 9.53-8.89c2.24-1.52 4.68-2.9 5.07-2.87.67.05 5.1 3.38 7.94 5.98L280.7 47l-1.11 1.2a62 62 0 0 0-12.82 20.56c-.45 1.22-.95 2.27-1.1 2.33-.3.11-3.43.47-4.17.48-.22 0-.48-.1-.56-.24m10.2-1.76c0-.47 2.25-5.58 3.48-7.9 2.25-4.23 7.29-11.6 7.94-11.6.4 0 3.47 3.89 5.5 6.94 1.5 2.27 3.6 5.9 3.5 6.06-.13.21-2.05 1.08-4.92 2.23a93 93 0 0 1-12.31 4c-2.54.63-3.18.69-3.18.27m22.5-7.94c-.1-.13-.5-.8-.9-1.47a67 67 0 0 0-7.28-10.03c-.86-.97-1.57-1.92-1.57-2.13 0-.5 2.8-3.1 5.46-5.09 2.9-2.16 2.79-2.12 4.35-1.5a61 61 0 0 1 13.85 7.8c.82.63 1.74 1.32 2.04 1.53s.52.47.49.57c-.25.81-9 6.77-14.01 9.55-1.94 1.07-2.14 1.14-2.42.77m28-2.19c-.1-.08-.88-1-1.7-2.04a71 71 0 0 0-3.76-4.2c-1.4-1.46-2.23-2.46-2.23-2.7 0-.37.79-1.05 4.02-3.45.33-.24.4-.16.9.96a47 47 0 0 1 2.99 10.39c.13 1.22.12 1.28-.22 1.04m-9.87-10.3c-.2-.32-3.84-3-5.78-4.27a65 65 0 0 0-10.27-5.21q-1.34-.45-.8-1.08c.31-.38 3.2-1.6 5.73-2.4l2.21-.7 1.22.32c2.24.58 5.76 1.93 8.1 3.1l2.34 1.17 1.52 2.05c.84 1.12 1.52 2.1 1.52 2.17 0 .18-4.16 4.29-4.74 4.69q-.81.55-1.05.16m-30.76-3.57c-.76-.92-5.2-4.49-7.63-6.13-.5-.33-.9-.68-.9-.77 0-.33.54-.56 2.28-.97s1.92-.42 4.95-.2c4.58.35 9.91 1.4 10.14 2 .14.36-.05.56-1.3 1.35-1.5.95-4.51 3.19-5.68 4.22-.99.88-1.44 1-1.86.5m36.65-3.05c-.84-1.25-.5-1.6.64-.65.5.41.61.62.5.94-.18.61-.6.5-1.14-.3m-26.92-4.46a61 61 0 0 0-8.56-1.6c-2.51-.18-3.04-.28-3.04-.56 0-.3 1.58-.67 5.04-1.18 1.87-.27 3.61-.33 9.64-.34 5.07 0 7.43.06 7.57.2.3.3-.06.53-1.5.92a49 49 0 0 0-6.58 2.7c-.49.35-1.29.3-2.57-.14" clip-path="url(#h)" style="fill:#1f94b8;fill-opacity:1" transform="matrix(1.01641 0 0 1.01586 -219.51 -12.11)"/></svg>