<svg xmlns="http://www.w3.org/2000/svg" xml:space="preserve" width="100mm" height="100mm" style="shape-rendering:geometricPrecision;text-rendering:geometricPrecision;image-rendering:optimizeQuality;fill-rule:evenodd;clip-rule:evenodd" viewBox="0 0 95.774 95.774"><path id="图层_x0020_1" d="M18.156 0h59.462c9.985 0 18.156 8.62 18.156 19.155v57.464c0 10.535-8.17 19.155-18.156 19.155H18.156C8.17 95.774 0 87.154 0 76.619V19.155C0 8.62 8.17 0 18.156 0m11.077 44.986-.113 8.758h3.07V43.622l.071.008 2.09 10.114 3.049-.003 1.843-10.233v10.237l2.984-.001-.141-10.35v-1.592H37.2l-1.443 8.979-1.405-8.98h-5.119zm39.127 8.758h3.071l.067-9.347 2.89 9.347h4.323V41.802H75.64l-.086 9.236-2.53-9.236H68.36zm-23.317-8.416c0 2.59 5.46 4.193 5.46 5.118v.91c0 .368-.413.569-.796.569h-.114c-.71 0-1.251-.326-1.251-1.024v-1.024h-2.957c-.263 0-.342.08-.342.341v.228c0 2.007 1.76 3.64 3.754 3.64h1.706c2.108 0 3.298-1.262 3.298-3.413 0-3.862-5.232-4.29-5.232-5.573v-.796c0-.369.494-.682.91-.682.55 0 1.024.322 1.024.91v.91h3.07v-.797c0-2.327-1.883-3.07-4.208-3.07-2.799 0-4.322.923-4.322 3.753M6.03 44.645v.683c0 2.6 5.46 4.23 5.46 5.118v.91c0 .368-.413.569-.796.569h-.342c-.444 0-1.023-.434-1.023-.797v-1.25H6.03v.34c0 2.199 1.553 3.868 3.64 3.868h1.82c1.95 0 3.298-1.253 3.298-3.185 0-4.44-5.345-4.167-5.345-6.142v-.114c0-.562.461-1.023 1.023-1.023.706 0 1.024.41 1.024 1.137v.682h3.07v-.796c0-2.06-1.787-3.07-3.866-3.07-2.485 0-4.664.633-4.664 3.07m50.615 6.028c0 2.574 1.857 3.299 4.436 3.299 2.163 0 3.867-1.023 3.867-3.185v-8.985h-3.071v9.326c0 .575-.842.797-1.479.797-.415 0-.91-.314-.91-.683v-9.44h-2.843zm-39.68 3.074 3.253-.007 1.528-10.343.13-.026 1.557 10.373 3.238-.01-2.215-11.932-5.252-.004zm64.93-8.874v6.483c0 1.653 1.64 2.843 3.299 2.843h.796c1.5 0 3.753-1.103 3.753-2.502v-4.436h-3.412v1.593h1.024V50.9c0 .587-.474.91-1.024.91h-.91c-.274 0-.682-.409-.682-.683v-6.37c0-.427.716-.682 1.137-.682.473 0 1.251.347 1.251.797v1.023h2.616v-1.592c0-1.352-1.995-2.502-3.526-2.502-2.15 0-4.322.952-4.322 3.07" style="fill:#142da0"/></svg>