<?xml version="1.0" encoding="UTF-8" standalone="no"?>
<svg
   height="40"
   style="clip-rule:evenodd;fill-rule:evenodd;image-rendering:optimizeQuality;shape-rendering:geometricPrecision;text-rendering:geometricPrecision"
   version="1.1"
   viewBox="0 0 1.5506849 1.2405479"
   width="50"
   xml:space="preserve"
   id="svg4"
   sodipodi:docname="WebCopier.svg"
   inkscape:version="1.4.3 (0d15f75, 2025-12-25)"
   xmlns:inkscape="http://www.inkscape.org/namespaces/inkscape"
   xmlns:sodipodi="http://sodipodi.sourceforge.net/DTD/sodipodi-0.dtd"
   xmlns="http://www.w3.org/2000/svg"
   xmlns:svg="http://www.w3.org/2000/svg"><sodipodi:namedview
     id="namedview4"
     pagecolor="#ffffff"
     bordercolor="#000000"
     borderopacity="0.25"
     inkscape:showpageshadow="2"
     inkscape:pageopacity="0.0"
     inkscape:pagecheckerboard="0"
     inkscape:deskcolor="#d1d1d1"
     inkscape:zoom="4.9643836"
     inkscape:cx="18.632726"
     inkscape:cy="12.388245"
     inkscape:window-width="1366"
     inkscape:window-height="697"
     inkscape:window-x="-8"
     inkscape:window-y="-8"
     inkscape:window-maximized="1"
     inkscape:current-layer="Layer_x0020_1" /><defs
     id="defs1"><style
       type="text/css"
       id="style1">
   <![CDATA[
    .fil0 {fill:none}
    .fil1 {fill:#2554B0;fill-rule:nonzero}
    .fil2 {fill:#479DFF;fill-rule:nonzero}
   ]]>
  </style></defs><g
     id="Layer_x0020_1"><rect
       class="fil0"
       height="11.32"
       width="11.32"
       id="rect1"
       x="0"
       y="0" /><path
       class="fil1"
       d="m 0.76303411,1.2017882 c -0.15890085,0 -0.30120016,-0.064035 -0.40555293,-0.1683875 C 0.25312834,0.93141959 0.18909371,0.78674869 0.18909371,0.62784777 c 0,-0.15890083 0.0640344,-0.30120014 0.16838747,-0.40555291 0.10435277,-0.10435278 0.24665208,-0.16838747 0.40555293,-0.16838747 0.15890083,0 0.30357179,0.0640344 0.40555289,0.16838747 0.1043528,0.10435277 0.1683875,0.24665208 0.1683875,0.40555291 0,0.15890092 -0.064034,0.30357182 -0.1683875,0.40555293 C 1.0666059,1.1377535 0.92193494,1.2017882 0.76303411,1.2017882 Z M 0.4191442,0.97410929 c 0.0877512,0.087751 0.20870561,0.14229931 0.34388991,0.14229931 0.13518428,0 0.25613869,-0.054548 0.34626149,-0.14229931 0.087751,-0.0901228 0.1422993,-0.2110772 0.1422993,-0.34626152 0,-0.13518428 -0.054548,-0.25613865 -0.1422993,-0.34388989 -0.090123,-0.0877513 -0.21107721,-0.14229925 -0.34626149,-0.14229925 -0.1351843,0 -0.25613873,0.0545481 -0.34388991,0.14229925 -0.0877513,0.0877512 -0.14229931,0.20870561 -0.14229931,0.34388989 0,0.13518432 0.0545481,0.25613872 0.14229931,0.34626152 z"
       id="path1"
       style="stroke-width:0.237166" /><path
       class="fil1"
       d="m 0.76303411,1.2017882 c -0.10672447,0 -0.20159067,-0.066406 -0.27036865,-0.1755025 -0.061663,-0.10198111 -0.1019811,-0.24428041 -0.1019811,-0.39843793 0,-0.15415755 0.0403183,-0.29408512 0.1019811,-0.39843796 0.068778,-0.10909612 0.16364418,-0.17550242 0.27036865,-0.17550242 0.10672444,0 0.20396226,0.0664063 0.27036859,0.17550242 0.064034,0.10435284 0.1019812,0.24428041 0.1019812,0.39843796 0,0.15415752 -0.037947,0.29645682 -0.1019812,0.39843793 C 0.96699637,1.1353818 0.86975855,1.2017882 0.76303411,1.2017882 Z M 0.5685584,0.98122429 c 0.0498046,0.083008 0.12095443,0.13518431 0.19447571,0.13518431 0.0758929,0 0.14467091,-0.052176 0.1968473,-0.13518431 0.0545481,-0.090123 0.0901229,-0.2134489 0.0901229,-0.35337652 0,-0.13755596 -0.035575,-0.26325361 -0.0901229,-0.35100485 -0.0521763,-0.0853796 -0.12095437,-0.13518429 -0.1968473,-0.13518429 -0.0735213,0 -0.14467094,0.0498046 -0.19447571,0.13518429 -0.0569198,0.0877512 -0.0901229,0.21344889 -0.0901229,0.35100485 0,0.13992762 0.033203,0.26325362 0.0901229,0.35337652 z"
       id="path2"
       style="stroke-width:0.237166" /><polygon
       class="fil1"
       points="5.85,3.42 5.85,7.9 5.48,7.9 5.48,3.42 "
       id="polygon2"
       transform="matrix(0.23716545,0,0,0.23716545,-0.57932236,-0.71450873)" /><polygon
       class="fil1"
       points="7.9,5.85 3.42,5.85 3.42,5.48 7.9,5.48 "
       id="polygon3"
       transform="matrix(0.23716545,0,0,0.23716545,-0.57932236,-0.71450873)" /><path
       class="fil1"
       d="m 1.2017902,0.33613426 c -0.054548,0.0332031 -0.1209544,0.0592916 -0.1968473,0.0782646 -0.0735213,0.0166015 -0.15652922,0.0260885 -0.24190879,0.0260885 -0.0830079,0 -0.16601581,-0.009486 -0.23953714,-0.0260885 -0.0758929,-0.0189733 -0.14467092,-0.0450618 -0.19921898,-0.0782646 l 0.0450611,-0.0735213 c 0.0474328,0.0284596 0.10672445,0.0498046 0.17313082,0.0664063 0.068778,0.0166015 0.14229924,0.0260885 0.22056387,0.0260885 0.0782646,0 0.15415755,-0.009487 0.22056385,-0.0260885 0.068778,-0.0166015 0.12806937,-0.0379465 0.17313077,-0.0664063 z"
       id="path3"
       style="stroke-width:0.237166" /><path
       class="fil2"
       d="m 1.3464611,0.36459416 c -0.023717,-0.004746 -0.037947,-0.0284602 -0.033203,-0.0521763 0.00475,-0.0237167 0.02846,-0.0379465 0.052176,-0.0332031 0.030831,0.007115 0.059292,0.0189733 0.078264,0.0332031 0.026089,0.0142298 0.04269,0.0355748 0.049805,0.0592915 0.02846,0.0782645 -0.035575,0.17550242 -0.1612725,0.27036856 C 1.2183918,0.72745729 1.0523759,0.81520849 0.85790031,0.88635809 0.6634246,0.95750769 0.48080722,0.99782589 0.33850791,1.0073125 0.17960707,1.0144277 0.06813934,0.98122399 0.03967944,0.90295969 c -0.0071152,-0.021345 -0.0094863,-0.045061 -0.0023731,-0.07115 v 0 c 0.0047461,-0.023717 0.01660153,-0.047433 0.0355748,-0.07115 0.01185804,-0.018973 0.04031827,-0.023717 0.05929154,-0.00949 0.0189733,0.011858 0.0237168,0.040318 0.009487,0.059292 -0.009487,0.01423 -0.0166015,0.02846 -0.0189733,0.04269 v 0 c -0.002373,0.00712 -0.002373,0.01423 0,0.021345 0.0118581,0.037947 0.0924945,0.052176 0.21107729,0.045062 0.13281268,-0.007112 0.3083151,-0.0450587 0.49567579,-0.1138363 C 1.0144295,0.73694389 1.1733303,0.65393597 1.2800548,0.57329968 1.3749209,0.50215009 1.4270974,0.43811539 1.4128674,0.4025406 1.4104974,0.3954256 1.4057474,0.3906826 1.3962664,0.3835673 1.3844084,0.3764523 1.3678064,0.3693375 1.3464611,0.36459416 Z"
       id="path4"
       style="stroke-width:0.237166" /></g></svg>
