<svg xmlns="http://www.w3.org/2000/svg" xmlns:xlink="http://www.w3.org/1999/xlink" width="55" height="55"><defs><linearGradient id="i" x1="6.59" x2="14.51" gradientTransform="matrix(.958 0 0 1.028 1 -.57)" gradientUnits="userSpaceOnUse"><stop offset="0" stop-color="#d6e3f0"/><stop offset="1" stop-color="#95b1cf"/></linearGradient><linearGradient id="j" x1="73.4" x2="-2.76" y1="26.65" y2="21.27" gradientTransform="matrix(1.025 0 0 .957 0 -.81)" gradientUnits="userSpaceOnUse"><stop offset="0" stop-color="#fff"/><stop offset="1" stop-color="#fff" stop-opacity="0"/></linearGradient><linearGradient id="g" x1="10.5" x2="10.22" y1="93.3" y2="84.3" gradientTransform="matrix(2.263 0 0 .442 1 -.88)" gradientUnits="userSpaceOnUse"><stop offset="0" stop-color="#fff"/><stop offset="1" stop-color="#cbcbcb"/></linearGradient><linearGradient id="b"><stop offset="0"/><stop offset="1" stop-opacity="0"/></linearGradient><linearGradient id="d" x2="0" y1="366.6" y2="609.5" gradientTransform="matrix(2.774 0 0 1.97 -1892 -872.9)" gradientUnits="userSpaceOnUse"><stop offset="0" stop-opacity="0"/><stop offset=".5"/><stop offset="1" stop-opacity="0"/></linearGradient><linearGradient id="p" x1="35.43" x2="41.22" y1="4.95" y2="4.95" gradientTransform="matrix(.254 0 0 3.76 .79 .15)" gradientUnits="userSpaceOnUse"><stop offset="0" stop-opacity=".07"/><stop offset="1" stop-color="#fff"/></linearGradient><linearGradient id="o" x1="52.35" x2="8.97" y1="23.2" y2="8.36" gradientUnits="userSpaceOnUse"><stop offset="0" stop-color="#204a87"/><stop offset="1" stop-color="#204a87" stop-opacity=".5"/></linearGradient><linearGradient id="a" x1="12.1" x2="60.95" y1="9.23" y2="26.16" gradientUnits="userSpaceOnUse"><stop offset="0" stop-color="#fff"/><stop offset="1" stop-color="#fff" stop-opacity="0"/></linearGradient><linearGradient xlink:href="#a" id="l" x1="12.1" x2="60.95" y1="9.23" y2="26.16" gradientUnits="userSpaceOnUse"/><linearGradient xlink:href="#a" id="k" x1="12.1" x2="60.95" y1="9.23" y2="26.16" gradientUnits="userSpaceOnUse"/><radialGradient xlink:href="#b" id="f" cx="605.7" cy="486.6" r="117.1" gradientTransform="matrix(-2.774 0 0 1.97 112.8 -872.9)" gradientUnits="userSpaceOnUse"/><radialGradient xlink:href="#b" id="e" cx="605.7" cy="486.6" r="117.1" gradientTransform="matrix(2.774 0 0 1.97 -1892 -872.9)" gradientUnits="userSpaceOnUse"/></defs><g stroke-linecap="round" stroke-linejoin="round" transform="translate(5.72 1.56)scale(.85054)"><path fill="#edd400" stroke="#c4a000" d="M33.1 4.65h7.42c.71 0 1.24.18 1.42 1.06l.88 6.9c.09 1.06-.38 1.41-1.33 1.41h-8.57z"/><path fill="none" stroke="#fff" d="M34.1 5.64h6.36c.31 0 .48.03.53.32l.79 6.38c.07.44.18.68-.14.69h-7.68z" opacity=".5"/><path fill="#9db029" stroke="#727e0a" d="M35.6 12.4h7.42c.71 0 1.24.18 1.42 1.06l.88 6.9c.09 1.06-.38 1.41-1.33 1.41h-8.57z"/><path fill="none" stroke="#fff" d="M36.6 13.39h6.36c.31 0 .48.03.53.32l.79 6.38c.07.44.18.68-.14.69h-7.68z" opacity=".5"/><path fill="#ef2929" stroke="#c00" d="M36.1 20.78h8.45c.8 0 1.41.22 1.61 1.31l1 8.56c.1 1.32-.42 1.75-1.5 1.75H35.9Z"/><path fill="none" stroke="#fff" d="M37.2 21.76h7.23c.35 0 .55.04.6.41l.9 8.12c.08.55.21.86-.16.88h-8.73z" opacity=".5"/><g opacity=".4"><path fill="url(#d)" d="M-1559-150.7h1340v478.4h-1340Z" style="fill:url(#d)" transform="translate(42.85 40.45)scale(.021)"/><path fill="url(#e)" d="M-219.6-150.7v478.4c142.9.9 345.4-107.2 345.4-239.2 0-132.1-159.5-239.2-345.4-239.2" style="fill:url(#e)" transform="translate(42.85 40.45)scale(.021)"/><path fill="url(#f)" d="M-1559-150.7v478.4c-143 .9-346-107.2-346-239.2 0-132.1 160-239.2 346-239.2" style="fill:url(#f)" transform="translate(42.85 40.45)scale(.021)"/></g><path fill="#5b6b94" stroke="#364878" d="m9.3 2.55 29.1-.09c.25 0 .57.2.6.45l3.26 32.96-1.32.05.63 6.45c.06.62-.18 1.16-1.07 1.16l-30.71.15c-2.53 0-5.14-2.08-5-4.66L6.43 5.7c.08-1.93 1.14-3.14 2.86-3.15Z"/><path fill="url(#g)" d="M40.1 34.88 10.9 35a3.07 3.07 0 0 0-2.81 3c0 1.6 1.26 2.82 2.81 3l29.2.12v-.06a3.1 3.1 0 0 1-3-3.06 3.1 3.1 0 0 1 3-3.06z" style="fill:url(#g)"/><path fill="url(#i)" d="m6.97 5.67-1.66 32.2a5.1 5.1 0 0 0 3.81 5.33c-4.25-1.63-3.69-9 1.63-8.96h30.9L38.34 3.28c-.03-.24-.35-.43-.6-.43L9.66 2.83c-1.68-.02-2.61.98-2.69 2.84" style="fill:url(#i)"/><path fill="none" stroke="url(#j)" d="m7.46 5.88-1.3 29.89c.93-1.61 2.44-2.19 4.85-2.19h29.95L38.14 3.75c-.03-.24-.35-.43-.59-.43H9.87c-1.67.01-2.33.74-2.41 2.56" style="stroke:url(#j)"/><g fill="none" stroke="url(#a)" style="stroke:url(#k)"><path id="n" d="M13.71 8.51h22.2A2.1 2.1 0 0 1 38 10.4l1 10.49c.1 1.04-1.05 1.89-2.35 1.89H13.39c-1.16 0-2.13-.84-2.09-1.89l.41-10.49a1.97 1.97 0 0 1 2-1.89" style="stroke:url(#l)"/></g><use xlink:href="#n" fill="url(#o)" stroke="#204a87" stroke-width=".5" style="fill:url(#o)"/><path fill="#fff" stroke="#fff" stroke-opacity=".5" stroke-width=".8" d="m35.87 10.28.1 1.53-4.48 6.63h5.06l.14 2.08h-8.1l-.05-1.67 4.59-6.66H28.5l-.05-1.92zm-8.62 5.1.04 2h-3.85v-2.02zm-7.54 3.23h-3.73l-.67 1.96h-2.42l3.81-10.29h2.72l3.25 10.28h-2.42l-.55-1.95m-3.07-1.96h2.51L18 12.59z"/><path fill="url(#p)" d="M9.79 3.97h2v29.6h-2z" opacity=".5" style="fill:url(#p)" transform="skewX(-2.05)scale(1 .9994)"/></g><text xml:space="preserve" x="7.9" y="52.5" style="font-weight:700;font-size:10.9168px;font-family:&quot;Microsoft YaHei&quot;;-inkscape-font-specification:&quot;Microsoft YaHei Bold&quot;;writing-mode:lr-tb;direction:ltr;fill:#ff7f2a;stroke-width:.911159" transform="scale(1.02765 .9731)"><tspan x="7.9" y="52.5" style="stroke-width:.911159">KEPUB</tspan></text></svg>